<?xml version="1.0" standalone="no"?>
<!DOCTYPE svg PUBLIC "-//W3C//DTD SVG 20010904//EN"
 "http://www.w3.org/TR/2001/REC-SVG-20010904/DTD/svg10.dtd">
<svg version="1.0" xmlns="http://www.w3.org/2000/svg"
 width="594.000000pt" height="594.000000pt" viewBox="0 0 594.000000 594.000000"
 preserveAspectRatio="xMidYMid meet">
<metadata>
Created by potrace 1.11, written by Peter Selinger 2001-2013
</metadata>
<g transform="translate(0.000000,594.000000) scale(0.100000,-0.100000)"
fill="#000000" stroke="none">
<path d="M1040 5884 c-109 -28 -199 -82 -285 -168 -131 -132 -186 -264 -188
-446 -1 -190 53 -321 188 -456 127 -128 262 -184 445 -184 101 0 186 16 263
49 l47 20 0 -1713 0 -1714 -73 28 c-40 16 -112 34 -159 41 -118 17 -235 -3
-356 -61 -69 -33 -101 -56 -167 -123 -135 -137 -188 -266 -187 -457 0 -182 59
-319 192 -451 254 -252 650 -247 900 11 66 68 112 143 148 242 l27 73 3 2378
c3 2637 7 2448 -65 2596 -52 107 -178 233 -283 284 -41 20 -102 44 -135 52
-75 19 -241 19 -315 -1z"/>
<path d="M2150 5740 l0 -160 1260 0 c693 0 1260 3 1260 8 -1 4 -40 75 -88 157
l-88 150 -1172 3 -1172 2 0 -160z"/>
<path d="M2150 4230 l0 -1040 890 0 890 0 0 165 0 165 -725 0 -725 0 2 708 3
707 715 0 c630 0 715 -2 713 -15 -1 -8 -14 -46 -30 -85 -25 -64 -27 -81 -28
-205 0 -150 9 -191 72 -311 157 -304 546 -422 858 -261 107 55 221 173 273
282 51 107 65 172 65 285 0 113 -14 178 -65 285 -75 156 -238 291 -409 337
-59 16 -167 17 -1281 20 l-1218 4 0 -1041z"/>
<path d="M2150 1790 l0 -1091 1338 4 c1490 3 1367 -3 1522 74 110 54 224 170
278 284 52 109 66 172 65 294 -2 238 -136 451 -348 556 -104 51 -180 69 -285
69 -182 0 -319 -58 -450 -190 -98 -98 -138 -169 -171 -300 -35 -139 -20 -285
46 -442 7 -17 -37 -18 -829 -18 l-836 0 2 763 3 762 723 3 722 2 0 160 0 160
-890 0 -890 0 0 -1090z"/>
<path d="M2150 225 l0 -165 1284 0 1283 0 92 160 c50 88 91 162 91 165 0 3
-619 5 -1375 5 l-1375 0 0 -165z"/>
</g>
</svg>
